HIERARCHY
ROOT Root
{
  OFFSET 0.0 0.0 0.0
  CHANNELS 6 Xposition Yposition Zposition Zrotation Yrotation Xrotation
  JOINT Hips
  {
    OFFSET 0.0 100.0 0.0
    CHANNELS 6 Xposition Yposition Zposition Zrotation Yrotation Xrotation
    JOINT Spine1
    {
      OFFSET -0.013727 5.003763 -0.053727
      CHANNELS 3 Zrotation Yrotation Xrotation
      JOINT Spine2
      {
        OFFSET -0.0 7.125301 -0.029825
        CHANNELS 3 Zrotation Yrotation Xrotation
        JOINT Chest
        {
          OFFSET -1e-06 7.550063 -0.815971
          CHANNELS 3 Zrotation Yrotation Xrotation
          JOINT Neck1
          {
            OFFSET -0.181677 26.311295 -0.553348
            CHANNELS 3 Zrotation Yrotation Xrotation
            JOINT Neck2
            {
              OFFSET -3e-06 7.709397 2.302585
              CHANNELS 3 Zrotation Yrotation Xrotation
              JOINT Head
              {
                OFFSET -5e-06 6.128916 1.953709
                CHANNELS 3 Zrotation Yrotation Xrotation
                JOINT HeadEnd
                {
                  OFFSET 0.003598 16.065403 -1.835379
                  CHANNELS 3 Zrotation Yrotation Xrotation
                }
                JOINT Jaw
                {
                  OFFSET 0.002637 0.475592 3.094941
                  CHANNELS 3 Zrotation Yrotation Xrotation
                }
                JOINT LeftEye
                {
                  OFFSET 3.206381 5.380205 7.586883
                  CHANNELS 3 Zrotation Yrotation Xrotation
                }
                JOINT RightEye
                {
                  OFFSET -3.22244 5.361869 7.558234
                  CHANNELS 3 Zrotation Yrotation Xrotation
                }
              }
            }
          }
          JOINT LeftShoulder
          {
            OFFSET 1.621652 23.237164 5.113413
            CHANNELS 3 Zrotation Yrotation Xrotation
            JOINT LeftArm
            {
              OFFSET 14.919846 2e-06 -5.502326
              CHANNELS 3 Zrotation Yrotation Xrotation
              JOINT LeftForeArm
              {
                OFFSET 28.739307 0.0 -0.002588
                CHANNELS 3 Zrotation Yrotation Xrotation
                JOINT LeftHand
                {
                  OFFSET 27.093981 -1e-06 0.002609
                  CHANNELS 3 Zrotation Yrotation Xrotation
                  JOINT LeftHandThumb1
                  {
                    OFFSET 2.276482 -1.392045 3.191413
                    CHANNELS 3 Zrotation Yrotation Xrotation
                    JOINT LeftHandThumb2
                    {
                      OFFSET 4.012836 -1.828127 1.641654
                      CHANNELS 3 Zrotation Yrotation Xrotation
                      JOINT LeftHandThumb3
                      {
                        OFFSET 2.798515 0.0 -3e-06
                        CHANNELS 3 Zrotation Yrotation Xrotation
                        JOINT LeftHandThumbEnd
                        {
                          OFFSET 3.180793 -4e-06 4e-06
                          CHANNELS 3 Zrotation Yrotation Xrotation
                        }
                      }
                    }
                  }
                  JOINT LeftHandIndex1
                  {
                    OFFSET 3.247555 -0.531998 2.296169
                    CHANNELS 3 Zrotation Yrotation Xrotation
                    JOINT LeftHandIndex2
                    {
                      OFFSET 6.364578 0.01206 0.1786
                      CHANNELS 3 Zrotation Yrotation Xrotation
                      JOINT LeftHandIndex3
                      {
                        OFFSET 3.662364 0.0 0.0
                        CHANNELS 3 Zrotation Yrotation Xrotation
                        JOINT LeftHandIndex4
                        {
                          OFFSET 2.329242 4e-06 4e-06
                          CHANNELS 3 Zrotation Yrotation Xrotation
                          JOINT LeftHandIndexEnd
                          {
                            OFFSET 2.759615 -0.180537 -0.113024
                            CHANNELS 3 Zrotation Yrotation Xrotation
                          }
                        }
                      }
                    }
                  }
                  JOINT LeftHandMiddle1
                  {
                    OFFSET 3.163495 0.240981 1.000332
                    CHANNELS 3 Zrotation Yrotation Xrotation
                    JOINT LeftHandMiddle2
                    {
                      OFFSET 6.19078 -0.259278 -1.002548
                      CHANNELS 3 Zrotation Yrotation Xrotation
                      JOINT LeftHandMiddle3
                      {
                        OFFSET 4.35652 -4e-06 -1e-06
                        CHANNELS 3 Zrotation Yrotation Xrotation
                        JOINT LeftHandMiddle4
                        {
                          OFFSET 2.996877 -8e-06 0.0
                          CHANNELS 3 Zrotation Yrotation Xrotation
                          JOINT LeftHandMiddleEnd
                          {
                            OFFSET 2.304287 -0.294569 -0.031741
                            CHANNELS 3 Zrotation Yrotation Xrotation
                          }
                        }
                      }
                    }
                  }
                  JOINT LeftHandRing1
                  {
                    OFFSET 2.882643 -0.053652 -0.322543
                    CHANNELS 3 Zrotation Yrotation Xrotation
                    JOINT LeftHandRing2
                    {
                      OFFSET 5.854541 -0.486202 -1.373841
                      CHANNELS 3 Zrotation Yrotation Xrotation
                      JOINT LeftHandRing3
                      {
                        OFFSET 4.350578 0.0 3e-06
                        CHANNELS 3 Zrotation Yrotation Xrotation
                        JOINT LeftHandRing4
                        {
                          OFFSET 2.651321 7e-06 2e-06
                          CHANNELS 3 Zrotation Yrotation Xrotation
                          JOINT LeftHandRingEnd
                          {
                            OFFSET 1.936105 0.077687 -7.1e-05
                            CHANNELS 3 Zrotation Yrotation Xrotation
                          }
                        }
                      }
                    }
                  }
                  JOINT LeftHandPinky1
                  {
                    OFFSET 2.8655 -0.310005 -1.600378
                    CHANNELS 3 Zrotation Yrotation Xrotation
                    JOINT LeftHandPinky2
                    {
                      OFFSET 5.087849 -1.331141 -1.77123
                      CHANNELS 3 Zrotation Yrotation Xrotation
                      JOINT LeftHandPinky3
                      {
                        OFFSET 3.070974 4e-06 0.0
                        CHANNELS 3 Zrotation Yrotation Xrotation
                        JOINT LeftHandPinky4
                        {
                          OFFSET 1.549672 0.0 1e-06
                          CHANNELS 3 Zrotation Yrotation Xrotation
                          JOINT LeftHandPinkyEnd
                          {
                            OFFSET 1.944893 -0.157802 0.057219
                            CHANNELS 3 Zrotation Yrotation Xrotation
                          }
                        }
                      }
                    }
                  }
                }
              }
            }
          }
          JOINT RightShoulder
          {
            OFFSET -1.380118 23.180309 5.214158
            CHANNELS 3 Zrotation Yrotation Xrotation
            JOINT RightArm
            {
              OFFSET -15.037196 1.2e-05 -5.545604
              CHANNELS 3 Zrotation Yrotation Xrotation
              JOINT RightForeArm
              {
                OFFSET -28.736639 2e-06 -0.002597
                CHANNELS 3 Zrotation Yrotation Xrotation
                JOINT RightHand
                {
                  OFFSET -27.133619 -0.0 0.002613
                  CHANNELS 3 Zrotation Yrotation Xrotation
                  JOINT RightHandThumb1
                  {
                    OFFSET -2.274032 -1.383988 3.163127
                    CHANNELS 3 Zrotation Yrotation Xrotation
                    JOINT RightHandThumb2
                    {
                      OFFSET -4.011429 -1.827466 1.640914
                      CHANNELS 3 Zrotation Yrotation Xrotation
                      JOINT RightHandThumb3
                      {
                        OFFSET -2.794935 -4e-06 -3e-06
                        CHANNELS 3 Zrotation Yrotation Xrotation
                        JOINT RightHandThumbEnd
                        {
                          OFFSET -3.183852 4e-06 1e-06
                          CHANNELS 3 Zrotation Yrotation Xrotation
                        }
                      }
                    }
                  }
                  JOINT RightHandIndex1
                  {
                    OFFSET -3.253266 -0.520057 2.282866
                    CHANNELS 3 Zrotation Yrotation Xrotation
                    JOINT RightHandIndex2
                    {
                      OFFSET -6.341917 0.012471 0.178266
                      CHANNELS 3 Zrotation Yrotation Xrotation
                      JOINT RightHandIndex3
                      {
                        OFFSET -3.654871 -8e-06 -0.0
                        CHANNELS 3 Zrotation Yrotation Xrotation
                        JOINT RightHandIndex4
                        {
                          OFFSET -2.327586 0.0 1e-06
                          CHANNELS 3 Zrotation Yrotation Xrotation
                          JOINT RightHandIndexEnd
                          {
                            OFFSET -2.76179 -0.180656 -0.113078
                            CHANNELS 3 Zrotation Yrotation Xrotation
                          }
                        }
                      }
                    }
                  }
                  JOINT RightHandMiddle1
                  {
                    OFFSET -3.168106 0.246593 1.00103
                    CHANNELS 3 Zrotation Yrotation Xrotation
                    JOINT RightHandMiddle2
                    {
                      OFFSET -6.180828 -0.258836 -1.000895
                      CHANNELS 3 Zrotation Yrotation Xrotation
                      JOINT RightHandMiddle3
                      {
                        OFFSET -4.348901 0.0 -0.0
                        CHANNELS 3 Zrotation Yrotation Xrotation
                        JOINT RightHandMiddle4
                        {
                          OFFSET -3.00024 -4e-06 -2e-06
                          CHANNELS 3 Zrotation Yrotation Xrotation
                          JOINT RightHandMiddleEnd
                          {
                            OFFSET -2.30252 -0.29437 -0.031706
                            CHANNELS 3 Zrotation Yrotation Xrotation
                          }
                        }
                      }
                    }
                  }
                  JOINT RightHandRing1
                  {
                    OFFSET -2.88569 -0.067952 -0.308858
                    CHANNELS 3 Zrotation Yrotation Xrotation
                    JOINT RightHandRing2
                    {
                      OFFSET -5.854198 -0.48613 -1.373731
                      CHANNELS 3 Zrotation Yrotation Xrotation
                      JOINT RightHandRing3
                      {
                        OFFSET -4.33881 -4e-06 -0.0
                        CHANNELS 3 Zrotation Yrotation Xrotation
                        JOINT RightHandRing4
                        {
                          OFFSET -2.654903 -4e-06 4e-06
                          CHANNELS 3 Zrotation Yrotation Xrotation
                          JOINT RightHandRingEnd
                          {
                            OFFSET -1.933568 0.077527 -5.2e-05
                            CHANNELS 3 Zrotation Yrotation Xrotation
                          }
                        }
                      }
                    }
                  }
                  JOINT RightHandPinky1
                  {
                    OFFSET -2.866425 -0.342796 -1.584145
                    CHANNELS 3 Zrotation Yrotation Xrotation
                    JOINT RightHandPinky2
                    {
                      OFFSET -5.091371 -1.332055 -1.772385
                      CHANNELS 3 Zrotation Yrotation Xrotation
                      JOINT RightHandPinky3
                      {
                        OFFSET -3.062664 -4e-06 1e-06
                        CHANNELS 3 Zrotation Yrotation Xrotation
                        JOINT RightHandPinky4
                        {
                          OFFSET -1.546529 4e-06 -2e-06
                          CHANNELS 3 Zrotation Yrotation Xrotation
                          JOINT RightHandPinkyEnd
                          {
                            OFFSET -1.945119 -0.157718 0.057211
                            CHANNELS 3 Zrotation Yrotation Xrotation
                          }
                        }
                      }
                    }
                  }
                }
              }
            }
          }
        }
      }
    }
    JOINT LeftLeg
    {
      OFFSET 10.043214 -8.434526 2.595655
      CHANNELS 3 Zrotation Yrotation Xrotation
      JOINT LeftShin
      {
        OFFSET -1e-06 -43.221752 -0.802913
        CHANNELS 3 Zrotation Yrotation Xrotation
        JOINT LeftFoot
        {
          OFFSET 1e-06 -42.155094 -3.481523
          CHANNELS 3 Zrotation Yrotation Xrotation
          JOINT LeftToeBase
          {
            OFFSET 0.0 -5.059472 13.231529
            CHANNELS 3 Zrotation Yrotation Xrotation
            JOINT LeftToeEnd
            {
              OFFSET -0.009607 -1.647619 6.513017
              CHANNELS 3 Zrotation Yrotation Xrotation
            }
          }
        }
      }
    }
    JOINT RightLeg
    {
      OFFSET -10.047278 -8.29526 2.620317
      CHANNELS 3 Zrotation Yrotation Xrotation
      JOINT RightShin
      {
        OFFSET 1e-06 -43.362206 -0.805556
        CHANNELS 3 Zrotation Yrotation Xrotation
        JOINT RightFoot
        {
          OFFSET 2e-06 -42.117393 -3.478398
          CHANNELS 3 Zrotation Yrotation Xrotation
          JOINT RightToeBase
          {
            OFFSET -0.0 -5.079609 13.284196
            CHANNELS 3 Zrotation Yrotation Xrotation
            JOINT RightToeEnd
            {
              OFFSET 0.009532 -1.634378 6.460591
              CHANNELS 3 Zrotation Yrotation Xrotation
            }
          }
        }
      }
    }
  }
}
MOTION
Frames: 4
Frame Time: 0.03333333333333333
0.0 0.0 0.0 0.0 -0.0 0.0 -3.004678 100.849007 0.514952 -0.945407 -0.354747 5.891024 -1.682979 -1.812266 2.512927 0.320292 -6.252567 -4.165896 3.292898 -7.535813 7.206435 -0.886086 3.548558 -3.368385 0.765062 6.669971 -3.350307 -2.085487 8.673497 -9.223598 7.7e-05 -2.2e-05 6e-06 0.031625 0.080852 -0.119731 0.626585 -3.659383 -10.706452 -0.565476 3.843078 -10.774359 -3.51676 -12.056982 11.852704 -57.142563 -26.388577 -4.58031 -170.81633 -58.755672 171.8078 -11.932981 -9.482533 20.347355 -5.882109 9.861288 0.70259 -10.93688 -0.360578 7.156211 2e-06 8.774829 -1e-06 -16.373009 18.788311 7.130775 -1.844033 2.498506 -2.507279 -10.163609 4.678946 4.621111 -20.97604 -6e-06 5e-06 -21.226303 2.451696 -3.593999 -1e-06 -6e-06 -1e-06 -1.362681 2.2408 -0.746324 -21.334929 0.584907 3.008327 -13.821225 -4e-06 4e-06 -23.887188 -0.249081 -0.839481 -61.083351 2.900251 -0.954333 -0.294024 1.679688 0.833255 -14.218217 0.093213 1.300581 -34.212074 -0.287567 0.967174 -20.033226 0.964536 1.212847 2e-06 -0.0 -1e-06 -3.440392 0.788233 0.501655 -15.928201 -3.167313 2.999709 -6.338831 -2e-06 1e-06 -18.123459 3.648181 -4.90567 -4e-06 -0.0 -2e-06 14.570868 -2.141396 18.316879 66.160927 -26.942053 0.98487 177.302689 58.761551 176.839249 -4.224827 0.252219 -3.511881 2.243541 -5.255036 -3.180157 14.282887 -0.826595 6.9525 -2e-06 -12.690601 0.0 15.258043 -17.839197 3.270269 1.665666 -1.955922 -2.878298 4.727798 -4.170587 4.993922 11.020522 2e-06 -1e-06 12.109048 -3.735716 -2.866784 0.0 -0.0 0.0 1.291986 -1.928549 -1.498089 14.800125 0.567468 3.865606 14.242568 -1.341736 -6.660657 19.631962 0.143927 -0.648244 49.749271 -0.700988 -6.511713 0.353029 -1.51115 -0.03194 20.222784 3.684309 2.316629 18.78727 5e-06 -1e-06 10.751622 -0.479867 1.397906 1e-06 1e-06 0.0 3.273806 0.305947 -0.580111 21.486809 11.830373 2.266133 8.162924 2e-06 -1e-06 18.399076 -3.798985 -4.940574 2e-06 1e-06 -0.0 -2.090515 0.939273 17.763416 0.165809 0.765678 36.748066 2.803408 7.874907 15.418968 1.689048 -1.963698 -3.806344 0.0 -0.0 3e-06 3.202712 -8.47027 -28.447081 0.131248 0.137464 15.62394 17.325262 7.604699 -2.632598 -1.273232 1.195747 -3.553247 -0.0 -0.0 0.0 
0.0 0.0 0.0 0.0 -0.0 0.0 -3.070607 98.615761 6.789385 -1.88004 -0.778296 4.097085 -0.906276 -1.317708 3.25094 0.351983 -5.022895 -3.923009 3.118298 -6.287607 7.099994 -1.672957 3.503344 -3.571546 0.675308 5.720461 -3.421202 -1.61796 7.865583 -9.016355 7.7e-05 -2.2e-05 6e-06 0.018798 -0.07352 -0.100077 0.621828 -3.814066 -10.69572 -0.58797 3.682623 -10.731838 -8.457804 -10.977695 13.144794 -56.208565 -22.820385 -2.425858 -166.651016 -71.972824 167.142502 -10.731398 -8.351593 30.600519 -5.882107 9.861286 0.702591 -10.936875 -0.360575 7.15621 1e-06 8.774826 -1e-06 -16.56953 18.405577 6.852676 -1.844032 2.498505 -2.507278 -10.163603 4.678944 4.621112 -20.97603 -5e-06 4e-06 -21.226295 2.451697 -3.593998 -0.0 -6e-06 0.0 -1.362681 2.240797 -0.746325 -21.334917 0.584909 3.008326 -13.821218 -3e-06 5e-06 -23.887177 -0.249079 -0.839479 -60.312592 2.944059 -1.175764 -0.294027 1.679687 0.833256 -14.218214 0.093213 1.300582 -34.212063 -0.287564 0.967175 -20.033218 0.964537 1.212846 2e-06 -1e-06 2e-06 -3.44039 0.788233 0.501657 -15.928192 -3.167311 2.999708 -6.338829 -2e-06 1e-06 -18.123453 3.648182 -4.905669 -4e-06 0.0 -1e-06 15.256587 0.295621 17.209036 63.335934 -18.408981 0.984576 176.508591 56.974571 176.170929 -5.246866 -0.966143 -6.935395 2.243543 -5.255039 -3.18016 14.282898 -0.826596 6.952507 -2e-06 -12.690607 1e-06 15.311865 -18.001905 3.107374 1.665667 -1.955922 -2.8783 4.727802 -4.17059 4.993927 11.020535 2e-06 -1e-06 12.109059 -3.735718 -2.866785 0.0 1e-06 0.0 1.291986 -1.92855 -1.49809 14.800138 0.567467 3.865611 14.24258 -1.341737 -6.660662 19.631975 0.143925 -0.648245 49.890354 -0.353773 -6.826612 0.353029 -1.511152 -0.03194 20.222803 3.68431 2.316632 18.787289 3e-06 -0.0 10.751636 -0.47987 1.397907 1e-06 0.0 0.0 3.273809 0.305947 -0.580111 21.486826 11.830379 2.266134 8.16293 1e-06 -0.0 18.399094 -3.798987 -4.940578 3e-06 -0.0 -1e-06 0.526122 1.98834 11.173512 0.337125 0.407205 55.846554 3.325333 13.459544 7.985677 2.107254 -2.058306 -4.439558 0.0 -0.0 4e-06 4.152572 -7.603339 -24.590525 0.386213 -0.060033 21.604204 7.202335 8.388261 -0.871904 -1.407083 0.924163 -2.17488 -0.0 0.0 -1e-06 
0.0 0.0 0.0 0.0 -0.0 0.0 -3.101515 95.443016 17.331604 -4.94166 -0.974161 2.512709 1.138023 -0.570686 4.46161 0.718548 -3.297012 -3.421235 4.410263 -4.684805 7.362766 -3.885148 4.065948 -4.391588 0.38115 4.177996 -3.559818 -1.674981 6.582887 -11.495122 7.7e-05 -2.3e-05 6e-06 -0.00498 -0.190611 -0.071987 0.61409 -3.93343 -10.742846 -0.630637 3.569121 -10.762304 -13.13767 -8.55234 13.161059 -56.127567 -18.121185 -0.555147 -160.025574 -82.15052 160.418915 -9.352846 -7.471495 39.605091 -5.882106 9.861284 0.702593 -10.936872 -0.360574 7.156208 0.0 8.774822 -1e-06 -16.386456 17.781933 6.415883 -1.844032 2.498502 -2.507278 -10.163601 4.678945 4.621109 -20.976023 -2e-06 5e-06 -21.226286 2.451697 -3.593997 -1e-06 -6e-06 -1e-06 -1.362682 2.240797 -0.746323 -21.334917 0.584909 3.008326 -13.821217 -3e-06 4e-06 -23.887173 -0.249076 -0.83948 -59.923695 2.703469 -1.053513 -0.294025 1.679688 0.833257 -14.218208 0.093214 1.300583 -34.212051 -0.287559 0.967174 -20.033211 0.96454 1.212847 -0.0 0.0 -2e-06 -3.440389 0.788231 0.501657 -15.928185 -3.167308 2.999708 -6.338826 0.0 -0.0 -18.123444 3.648183 -4.905668 -6e-06 0.0 -2e-06 16.040131 4.571377 16.297745 57.741737 -6.097983 -2.246567 175.004715 54.486042 175.430252 -8.303753 -3.135567 -10.524106 2.243541 -5.255037 -3.180157 14.282886 -0.826595 6.952502 -0.0 -12.690603 -0.0 15.91432 -17.809639 2.938606 1.665666 -1.955922 -2.878299 4.727798 -4.170587 4.993924 11.020524 2e-06 -1e-06 12.10905 -3.735716 -2.866784 0.0 -0.0 0.0 1.291985 -1.928549 -1.498089 14.800122 0.567467 3.865608 14.242567 -1.341738 -6.660657 19.631962 0.143925 -0.648245 50.329758 -0.258991 -6.426252 0.353029 -1.51115 -0.03194 20.222786 3.684308 2.316631 18.78727 3e-06 -0.0 10.751625 -0.47987 1.397906 0.0 0.0 -0.0 3.273805 0.305947 -0.58011 21.486803 11.830373 2.266134 8.162924 1e-06 0.0 18.399076 -3.798987 -4.940575 4e-06 -0.0 -1e-06 6.44156 2.746657 0.489008 0.298126 -0.057712 76.21196 4.093649 14.484197 3.765147 2.439513 -2.074214 -5.10492 -0.0 0.0 2e-06 6.906291 -5.50953 -22.623232 0.070305 -0.170253 35.377567 0.4513 5.071445 -14.307792 -1.433788 0.847074 0.326939 0.0 0.0 -1e-06 
0.0 0.0 0.0 0.0 -0.0 0.0 -2.614372 93.68895 26.345852 -6.996837 -1.505109 1.675131 2.664083 0.016504 5.218339 1.07374 -1.494545 -3.016865 5.896203 -2.785098 8.319811 -6.688032 3.944189 -5.967819 0.305155 3.721079 -3.700334 -2.072215 5.458724 -13.023081 7.7e-05 -2.3e-05 6e-06 -0.027831 -0.149306 -0.037027 0.641898 -3.893583 -10.788259 -0.707717 3.611139 -10.787522 -17.228529 -4.95376 13.230799 -56.468956 -11.597634 -0.028639 -163.141815 -85.845177 163.341461 -8.022296 -7.637209 40.642708 -5.882111 9.861293 0.702592 -10.936883 -0.360575 7.156216 -0.0 8.774831 -1e-06 -15.808169 17.344835 6.185812 -1.844034 2.498506 -2.507281 -10.163609 4.678949 4.621115 -20.976044 -4e-06 4e-06 -21.226307 2.451699 -3.594002 1e-06 -6e-06 -0.0 -1.362684 2.2408 -0.746325 -21.334938 0.58491 3.008329 -13.821227 -4e-06 5e-06 -23.887196 -0.249076 -0.839479 -59.404396 2.735001 -0.803438 -0.294025 1.67969 0.833257 -14.218224 0.093216 1.300584 -34.212082 -0.287563 0.967174 -20.033232 0.96454 1.212846 -1e-06 0.0 1e-06 -3.440392 0.788233 0.501656 -15.928205 -3.167312 2.999712 -6.338832 0.0 1e-06 -18.123463 3.648185 -4.905674 -4e-06 3e-06 -2e-06 15.794056 9.126944 15.53573 49.08461 8.48509 -6.622205 176.799286 53.403461 177.521576 -10.685639 -4.183748 -12.066287 2.243541 -5.255037 -3.180157 14.282892 -0.826595 6.952507 -1e-06 -12.690607 0.0 16.303429 -17.55232 2.952105 1.665665 -1.955922 -2.878299 4.727799 -4.170588 4.993926 11.020526 2e-06 1e-06 12.109053 -3.735717 -2.866782 1e-06 -0.0 -1e-06 1.291985 -1.928549 -1.498089 14.800127 0.567467 3.865612 14.242569 -1.341738 -6.660655 19.631968 0.143924 -0.648242 50.727512 -0.533002 -6.190163 0.353029 -1.511151 -0.03194 20.22279 3.684309 2.316635 18.787273 1e-06 2e-06 10.751631 -0.47987 1.397908 2e-06 -0.0 1e-06 3.273806 0.305946 -0.58011 21.486814 11.830376 2.266138 8.162926 -1e-06 2e-06 18.39908 -3.798989 -4.940573 2e-06 -0.0 -1e-06 9.643659 2.111936 -12.211837 0.161493 -0.132686 90.379478 5.131221 11.673357 3.072341 2.418343 -2.060805 -5.732784 0.0 0.0 2e-06 7.880941 -6.087323 -17.00918 0.063219 -0.131724 39.216022 0.534067 5.851861 -21.879229 -1.415221 0.892826 0.763456 0.0 0.0 -1e-06 
